<?xml version="1.0" encoding="UTF-8"?>
<svg version="1.1" xmlns="http://www.w3.org/2000/svg" width="415" height="432">
<path d="M0 0 C0.99 0 1.98 0 3 0 C3 39.93 3 79.86 3 121 C23.50838991 120.84177443 23.50838991 120.84177443 44.01635742 120.63964844 C46.58772113 120.6279658 49.15909222 120.61777298 51.73046875 120.609375 C52.72727409 120.59369476 52.72727409 120.59369476 53.74421692 120.57769775 C55.71234358 120.54829955 57.68082385 120.54664268 59.64916992 120.54589844 C60.7572551 120.53701599 61.86534027 120.52813354 63.00700378 120.51898193 C66.72455755 121.11644695 68.38620424 122.32724363 71 125 C71.6437446 128.9339948 71.56223945 131.06293426 69.5 134.5 C66.84105248 137.15894752 64.06618304 139.60678256 61.20703125 142.046875 C58.14717475 144.75471261 55.31284495 147.66214444 52.46875 150.59375 C49.76207814 153.23189852 46.93714405 155.69362154 44.08349609 158.17041016 C40.83980925 161.01880355 37.7016788 163.97495019 34.5625 166.9375 C33.88219727 167.57719727 33.20189453 168.21689453 32.50097656 168.87597656 C29.59895908 171.60564947 26.70062764 174.33922143 23.80224609 177.07275391 C21.61852435 179.13221853 19.43438795 181.19124202 17.25 183.25 C16.53996826 183.91950684 15.82993652 184.58901367 15.09838867 185.27880859 C10.88874707 189.24202977 6.65011863 193.17006462 2.375 197.0625 C-1.2680451 200.38293212 -4.80422558 203.76409023 -8.25317383 207.28417969 C-10.00917319 209.00901036 -11.82544439 210.61784803 -13.69140625 212.22265625 C-17.96148198 215.93733857 -22.08246628 219.79223345 -26.1875 223.6875 C-33.40847293 230.51338266 -40.68110005 237.27934057 -48 244 C-48.99 243.67 -49.98 243.34 -51 243 C-50.505 183.6 -50.505 183.6 -50 123 C-70.882531 123.15828629 -70.882531 123.15828629 -91.76464844 123.36035156 C-94.37955067 123.37203228 -96.99446016 123.38222556 -99.609375 123.390625 C-100.28728088 123.40107849 -100.96518677 123.41153198 -101.66363525 123.42230225 C-103.66586965 123.45162626 -105.66844946 123.45335633 -107.67089844 123.45410156 C-108.79896912 123.46298401 -109.92703979 123.47186646 -111.08929443 123.48101807 C-114.65949268 122.8910134 -115.79296924 121.80697205 -118 119 C-119 116.625 -119 116.625 -119 114 C-116.03384525 108.75854172 -112.11498596 105.02802952 -107.6875 101 C-106.24478715 99.66797365 -104.80207892 98.33594228 -103.359375 97.00390625 C-102.63041016 96.33504395 -101.90144531 95.66618164 -101.15039062 94.97705078 C-97.89437271 91.98349571 -94.66704031 88.95955229 -91.4375 85.9375 C-90.19684185 84.77970434 -88.95595629 83.62215231 -87.71484375 82.46484375 C-83.97567618 78.97751173 -80.23774647 75.48885504 -76.5 72 C-75.25000541 70.83332754 -74.00000541 69.66666087 -72.75 68.5 C-72.13125 67.9225 -71.5125 67.345 -70.875 66.75 C-65.25 61.5 -65.25 61.5 -63.37231445 59.74755859 C-62.13117955 58.58912286 -60.89013037 57.43059527 -59.64916992 56.27197266 C-56.38925658 53.2285865 -53.12755805 50.18714352 -49.86328125 47.1484375 C-49.18523437 46.51679688 -48.5071875 45.88515625 -47.80859375 45.234375 C-46.51357225 44.0280536 -45.21803031 42.82229058 -43.921875 41.6171875 C-43.33535156 41.070625 -42.74882812 40.5240625 -42.14453125 39.9609375 C-41.59748535 39.45143555 -41.05043945 38.94193359 -40.48681641 38.41699219 C-39.18954141 37.18064012 -37.93979687 35.89479674 -36.69921875 34.6015625 C-35 33 -35 33 -33 33 C-33 32.34 -33 31.68 -33 31 C-31.53125 29.53710937 -31.53125 29.53710937 -29.5 27.84375 C-25.20364345 24.19033413 -21.09361621 20.37774192 -17 16.5 C-12.28406991 12.03276153 -7.52083838 7.66591671 -2.56640625 3.46289062 C-0.88738201 2.06513262 -0.88738201 2.06513262 0 0 Z " fill="#ED872D" transform="translate(229,96)"/>
<path d="M0 0 C31.64424931 -0.06850657 63.28847743 -0.12156448 94.93278362 -0.15319599 C98.67263712 -0.1569479 102.41249047 -0.16083089 106.15234375 -0.16479492 C107.2691027 -0.16597532 107.2691027 -0.16597532 108.40842244 -0.16717956 C120.44747736 -0.1802169 132.4864891 -0.20386149 144.52551845 -0.23145839 C156.88790936 -0.2595592 169.25027773 -0.27618613 181.61269927 -0.28226548 C189.23480694 -0.28637225 196.85679254 -0.29932117 204.47886261 -0.3237494 C210.33336877 -0.3415516 216.18781301 -0.34335385 222.04234695 -0.33932304 C224.43679936 -0.34014599 226.83125654 -0.34608144 229.2256813 -0.35761642 C252.37745711 -0.46364491 252.37745711 -0.46364491 262 3 C262.8836536 3.29991254 263.76730721 3.59982508 264.67773819 3.90882587 C282.3650973 10.14766649 297.26676836 24.60138083 306.25 40.8125 C311.48911729 52.10570839 313.14389514 64.08258555 313.15821838 76.37986755 C313.16315636 77.29290824 313.16809434 78.20594894 313.17318195 79.14665753 C313.18847546 82.19078754 313.19689662 85.23489656 313.20532227 88.27905273 C313.21490992 90.4698403 313.22492051 92.66062605 313.23532104 94.85140991 C313.26234731 100.80183467 313.28338673 106.75226727 313.30332303 112.70271945 C313.32530407 118.97094015 313.35265697 125.23913752 313.37937927 131.50733948 C313.42365578 142.06844013 313.46444164 152.62954999 313.50268555 163.19067383 C313.55610256 177.93907369 313.61596253 192.68744107 313.67708123 207.43581092 C313.72482629 219.01839995 313.77071019 230.60099649 313.81640625 242.18359375 C313.821223 243.39830565 313.82603976 244.61301755 313.83100247 245.86453891 C313.88887167 260.50692746 313.94087031 275.14931302 313.98167801 289.79175949 C313.99344673 293.95484862 314.00760813 298.11791977 314.02369308 302.28099442 C314.04260017 307.20951085 314.05673682 312.13801725 314.067047 317.06655896 C314.07162524 318.87368317 314.07791137 320.68080395 314.0859977 322.48791587 C314.09665589 324.93381825 314.10121142 327.37965478 314.10411072 329.82557678 C314.10868739 330.54613805 314.11326405 331.26669933 314.11797941 332.00909579 C314.11416139 336.88583861 314.11416139 336.88583861 313 338 C309.90903151 338.10250293 306.84026285 338.13884391 303.74873352 338.13371277 C302.27381393 338.1371111 302.27381393 338.1371111 300.76909798 338.14057809 C297.44672098 338.14695012 294.12438443 338.14608666 290.80200195 338.14526367 C288.43051093 338.14825339 286.0590204 338.15165548 283.68753052 338.15544128 C277.89503469 338.16338679 272.10255129 338.1664971 266.31005029 338.16705366 C261.59671019 338.16752848 256.88337345 338.16958152 252.17003441 338.17275429 C238.79984072 338.18157065 225.42965508 338.18617282 212.05945847 338.18542381 C211.33786208 338.18538386 210.61626569 338.1853439 209.87280273 338.18530273 C209.15032119 338.18526185 208.42783965 338.18522097 207.68346473 338.18517885 C196.00472573 338.18477342 184.32601913 338.19431452 172.64728949 338.2084411 C160.64871626 338.22283945 148.65015878 338.2297092 136.6515767 338.22884732 C129.91845884 338.22851626 123.18537484 338.23122265 116.45226479 338.24202538 C110.10840864 338.2517441 103.76462366 338.25175968 97.42076492 338.24450874 C95.09972339 338.2434672 92.77867734 338.24580005 90.45764351 338.2518692 C63.87900765 338.31682916 40.76951258 335.45350564 20.82421875 315.953125 C11.60617973 306.53815941 3.42839296 294.90188204 1.421875 281.64453125 C1.06114904 279.12085188 1.06114904 279.12085188 0.52999324 277.16669071 C-1.03760855 270.98775241 -1.27957488 265.15515089 -1.24723816 258.80154419 C-1.24965257 257.70566258 -1.25206699 256.60978098 -1.25455457 255.48069084 C-1.26016934 251.82577016 -1.25154527 248.17102598 -1.24291992 244.51611328 C-1.24399332 241.88914442 -1.24593286 239.26217578 -1.24867249 236.63520813 C-1.25369961 230.25258067 -1.24809238 223.87000526 -1.23882218 217.48738427 C-1.22841537 210.0540881 -1.22850895 202.62080303 -1.22899476 195.18750094 C-1.22949474 181.9287006 -1.22034944 168.66992443 -1.20581055 155.41113281 C-1.1917073 142.54296427 -1.18464056 129.674817 -1.18530273 116.80664062 C-1.18534269 116.01317353 -1.18538265 115.21970643 -1.18542381 114.40219487 C-1.18546417 113.61010129 -1.18550452 112.8180077 -1.1855461 112.00191128 C-1.18623548 97.3478331 -1.1803508 82.69376394 -1.17139288 68.03968868 C-1.16837485 62.85626357 -1.16731315 57.67284011 -1.16686058 52.48941422 C-1.16610821 45.52088874 -1.15977499 38.55238614 -1.14969444 31.58386803 C-1.14676519 29.0211558 -1.14554493 26.45844099 -1.14612198 23.89572716 C-1.1466101 20.40931195 -1.14098244 16.92296033 -1.13371277 13.43655396 C-1.13603567 11.90054557 -1.13603567 11.90054557 -1.1384055 10.3335067 C-1.13518106 9.40301723 -1.13195661 8.47252775 -1.12863445 7.51384163 C-1.12793003 6.70877682 -1.1272256 5.90371201 -1.12649983 5.07425129 C-1 3 -1 3 0 0 Z M8 8 C7.88535541 41.72481751 7.7973503 75.44958621 7.74467335 109.17455557 C7.73842042 113.16332708 7.73194875 117.1520982 7.7253418 121.14086914 C7.72403024 121.93490401 7.72271869 122.72893887 7.7213674 123.5470354 C7.69965824 136.374899 7.66026172 149.20264964 7.61423602 162.0304464 C7.56734594 175.20985607 7.5396782 188.38920691 7.52955753 201.56869656 C7.52272425 209.68990455 7.50120576 217.81079318 7.46041767 225.93190277 C7.43382395 231.51390697 7.42603623 237.09574801 7.43249311 242.67781084 C7.4356705 245.89021136 7.42827528 249.10194636 7.40397263 252.31427193 C7.23599102 275.67793258 10.17702775 293.11826566 26.69140625 310.71875 C42.17183651 326.01582491 62.3038248 331.18210225 83.59761047 331.12698364 C84.53337911 331.12854363 85.46914775 331.13010362 86.43327302 331.13171089 C89.55229268 331.13568275 92.67126322 331.13254611 95.7902832 331.12939453 C98.03287281 331.13075022 100.27546219 331.13253109 102.51805115 331.13470459 C108.59610296 331.13925769 114.67413777 331.13749843 120.75218987 331.1343255 C127.11158306 331.13179252 133.4709748 331.13414192 139.83036804 331.13571167 C151.1872419 331.13764637 162.54410712 331.13454184 173.90097924 331.12945233 C184.20099845 331.12497949 194.50100639 331.12576553 204.80102539 331.13037109 C216.76854648 331.13571978 228.73606072 331.13771654 240.70358342 331.13475883 C247.0366122 331.13319773 253.36963322 331.1329979 259.70266151 331.13629532 C265.6509472 331.13917629 271.59921152 331.13719416 277.54749489 331.13140106 C279.73448145 331.13007498 281.9214698 331.13046502 284.10845566 331.13266373 C287.08476425 331.13538097 290.06100361 331.13198705 293.03730774 331.12698364 C294.34671883 331.13032973 294.34671883 331.13032973 295.68258268 331.13374341 C299.03985353 331.12273445 301.79259685 331.06913438 305 330 C305.12798346 299.96133759 305.25544153 269.92267299 305.38218227 239.88400531 C305.3971997 236.32485118 305.41222153 232.76569707 305.42724609 229.20654297 C305.43023671 228.49808149 305.43322732 227.78962001 305.43630856 227.05969 C305.48452538 215.63985032 305.53309783 204.22001219 305.58180541 192.80017459 C305.63190342 181.05245137 305.68161067 169.30472653 305.73096704 157.55700016 C305.75864759 150.9711146 305.78651187 144.38522989 305.81480408 137.79934692 C305.84151133 131.58107621 305.86773012 125.36280361 305.89359856 119.14452934 C305.90309707 116.88090377 305.91276333 114.61727889 305.92262459 112.35365486 C305.94915992 106.25038673 305.97107116 100.14713117 305.98864174 94.04383087 C306.00066042 90.82301794 306.02064328 87.6023026 306.04075623 84.38153076 C306.05011223 82.21968671 306.05927863 80.05784183 306.0682373 77.89599609 C306.07627144 76.90486124 306.08430558 75.91372639 306.09258318 74.89255714 C306.14912374 55.64181836 297.95417179 39.3878137 284.73046875 25.640625 C270.86775214 12.29300125 253.33740558 6.8247945 234.42221069 6.87301636 C233.47645695 6.87145637 232.53070321 6.86989638 231.55629027 6.86828911 C228.39737413 6.86431065 225.23850632 6.86745652 222.07958984 6.87060547 C219.81083651 6.86925005 217.54208339 6.86746932 215.27333069 6.86529541 C209.11864161 6.86073836 202.96396929 6.86250342 196.80927992 6.8656745 C190.36940433 6.86820638 183.92953018 6.8658583 177.48965454 6.86428833 C165.98485769 6.86235283 154.48006943 6.86545965 142.97527392 6.87054767 C132.54568665 6.87501734 122.11611051 6.87423734 111.68652344 6.86962891 C99.56846744 6.8642769 87.45042017 6.86228548 75.33236277 6.86524117 C68.91988967 6.86680118 62.50742424 6.86700518 56.09495163 6.86370468 C50.06869937 6.86081956 44.04246817 6.86281351 38.01621819 6.86859894 C35.80265907 6.86992296 33.58909819 6.86953846 31.37553978 6.86733627 C28.35827647 6.86461088 25.34108099 6.86802301 22.32382202 6.87301636 C21.44435201 6.87078564 20.564882 6.86855491 19.65876138 6.86625659 C15.63893945 6.87919334 11.92251403 6.99328994 8 8 Z " fill="#3A68C1" transform="translate(49,49)"/>
<path d="M0 0 C0 39.93 0 79.86 0 121 C-28.3078125 121.0928125 -28.3078125 121.0928125 -57.1875 121.1875 C-63.14578857 121.21481201 -69.10407715 121.24212402 -75.24291992 121.27026367 C-82.5201416 121.28381348 -82.5201416 121.28381348 -85.92720032 121.28633118 C-88.30616437 121.29093716 -90.68512144 121.3014868 -93.06404114 121.31672668 C-96.66806198 121.33866017 -100.27165492 121.34171887 -103.87573242 121.34057617 C-105.46478913 121.35676766 -105.46478913 121.35676766 -107.08594799 121.37328625 C-116.15598973 121.33474403 -116.15598973 121.33474403 -120 118 C-121.0625 115.6875 -121.0625 115.6875 -121 113 C-118.03106578 107.75938126 -114.11574557 104.02872059 -109.6875 100 C-108.24478715 98.66797365 -106.80207892 97.33594228 -105.359375 96.00390625 C-104.63041016 95.33504395 -103.90144531 94.66618164 -103.15039062 93.97705078 C-99.89437271 90.98349571 -96.66704031 87.95955229 -93.4375 84.9375 C-92.19684185 83.77970434 -90.95595629 82.62215231 -89.71484375 81.46484375 C-85.97567618 77.97751173 -82.23774647 74.48885504 -78.5 71 C-77.25000541 69.83332754 -76.00000541 68.66666087 -74.75 67.5 C-74.13125 66.9225 -73.5125 66.345 -72.875 65.75 C-67.25 60.5 -67.25 60.5 -65.37231445 58.74755859 C-64.13117955 57.58912286 -62.89013037 56.43059527 -61.64916992 55.27197266 C-58.38925658 52.2285865 -55.12755805 49.18714352 -51.86328125 46.1484375 C-51.18523437 45.51679688 -50.5071875 44.88515625 -49.80859375 44.234375 C-48.51357225 43.0280536 -47.21803031 41.82229058 -45.921875 40.6171875 C-45.33535156 40.070625 -44.74882812 39.5240625 -44.14453125 38.9609375 C-43.59748535 38.45143555 -43.05043945 37.94193359 -42.48681641 37.41699219 C-41.18954141 36.18064012 -39.93979687 34.89479674 -38.69921875 33.6015625 C-37 32 -37 32 -35 32 C-35 31.34 -35 30.68 -35 30 C-33.53125 28.53710938 -33.53125 28.53710938 -31.5 26.84375 C-27.20364345 23.19033413 -23.09361621 19.37774192 -19 15.5 C-2.6371134 0 -2.6371134 0 0 0 Z " fill="#F59C26" transform="translate(231,97)"/>
<path d="M0 0 C30.85463174 -0.02281119 61.70926155 -0.04050895 92.5638997 -0.05106533 C96.2063368 -0.05231604 99.84877387 -0.05361036 103.49121094 -0.05493164 C104.21635646 -0.05519395 104.94150199 -0.05545626 105.68862163 -0.05572652 C117.43101614 -0.06007816 129.17340576 -0.06796294 140.91579737 -0.0771528 C152.96401825 -0.08650338 165.01223656 -0.09205859 177.06046093 -0.09408849 C183.82798204 -0.09533764 190.59549296 -0.09834281 197.36301041 -0.10573006 C203.73061213 -0.11250888 210.09819816 -0.11461314 216.46580315 -0.11310768 C218.80471698 -0.11338317 221.14363132 -0.11537725 223.48254204 -0.11920547 C226.67279846 -0.12417174 229.86299541 -0.12298738 233.05325317 -0.12025452 C234.44528825 -0.12462378 234.44528825 -0.12462378 235.86544526 -0.12908131 C240.35999573 -0.11865639 244.57630364 0.08397841 249 1 C249 1.33 249 1.66 249 2 C169.8 2 90.6 2 9 2 C9 3.32 9 4.64 9 6 C86.55 6 164.1 6 244 6 C244 6.33 244 6.66 244 7 C166.12 7.33 88.24 7.66 8 8 C8.14863033 57.38575821 8.14863033 57.38575821 8.30664062 106.77148438 C8.32860812 113.42081681 8.35051333 120.07014944 8.37231445 126.71948242 C8.37504964 127.5529226 8.37778483 128.38636278 8.3806029 129.24505872 C8.42472846 142.71828161 8.46533479 156.19151294 8.50465261 169.66475063 C8.54505057 183.48143004 8.58920405 197.29809373 8.63687855 211.11474997 C8.666201 219.64736561 8.69255823 228.17998001 8.71517897 236.71261609 C8.73094937 242.5556578 8.75035195 248.39868024 8.77266841 254.24170058 C8.78545436 257.61794278 8.79658372 260.99417006 8.80341911 264.37042999 C8.81164315 268.02225025 8.8259091 271.67399661 8.84178162 275.32579041 C8.84275972 276.40456119 8.84373783 277.48333197 8.84474558 278.59479278 C8.85022002 279.5651678 8.85569446 280.53554282 8.8613348 281.53532314 C8.86399284 282.37944144 8.86665089 283.22355973 8.86938947 284.09325737 C8.79086934 286.00991287 8.79086934 286.00991287 10 287 C10.04063832 288.66617115 10.042721 290.33388095 10 292 C9.34 292 8.68 292 8 292 C8 291.34 8 290.68 8 290 C7.34 290 6.68 290 6 290 C4.23384882 285.29026351 3.51405169 280.96916636 3 276 C2.34 276 1.68 276 1 276 C-1.38506006 270.37340976 -1.27750838 265.16131039 -1.24723816 259.16230774 C-1.24965257 258.06898941 -1.25206699 256.97567108 -1.25455457 255.84922189 C-1.26019125 252.18498368 -1.25152857 248.52091983 -1.24291992 244.85668945 C-1.24399279 242.23016309 -1.24593155 239.60363697 -1.24867249 236.97711182 C-1.25370923 230.58404679 -1.24807983 224.19103357 -1.23882218 217.79797498 C-1.22843172 210.35489061 -1.22850853 202.9118174 -1.22899476 195.46872713 C-1.22949518 182.19162421 -1.22033838 168.9145454 -1.20581055 155.63745117 C-1.19171499 142.74877483 -1.18464016 129.8601197 -1.18530273 116.97143555 C-1.18534269 116.17718028 -1.18538265 115.38292501 -1.18542381 114.5646014 C-1.18546417 113.77172878 -1.18550452 112.97885615 -1.1855461 112.16195709 C-1.18623553 97.49257492 -1.18034937 82.82320178 -1.17139288 68.15382254 C-1.16837426 62.96291807 -1.16731306 57.77201525 -1.16686058 52.58111 C-1.16610813 45.60031266 -1.15977415 38.61953816 -1.14969444 31.63874817 C-1.14676516 29.07120081 -1.14554493 26.50365088 -1.14612198 23.93610191 C-1.14661011 20.44295763 -1.1409823 16.94987681 -1.13371277 13.45674133 C-1.13526137 12.43068938 -1.13680997 11.40463743 -1.1384055 10.34749299 C-1.13518106 9.41515342 -1.13195661 8.48281385 -1.12863445 7.52222157 C-1.12793003 6.71553054 -1.1272256 5.90883951 -1.12649983 5.0777033 C-1 3 -1 3 0 0 Z " fill="#3F69BC" transform="translate(49,49)"/>
<path d="M0 0 C79.2 0 158.4 0 240 0 C239.67 0.99 239.34 1.98 239 3 C236.28366771 3.9054441 234.73278067 4.12452667 231.94515705 4.12304783 C231.11710255 4.12503888 230.28904805 4.12702993 229.43590099 4.12908131 C228.52637571 4.12616847 227.61685044 4.12325563 226.67976379 4.12025452 C225.71348216 4.12110894 224.74720053 4.12196337 223.75163764 4.12284368 C220.49952694 4.12449658 217.24746731 4.11898018 213.99536133 4.11352539 C211.66982525 4.11324345 209.34428908 4.11340138 207.01875305 4.1139679 C200.69267842 4.11425561 194.36662262 4.10836306 188.04055238 4.10139394 C182.10304223 4.09578766 176.16553283 4.09477159 170.22802039 4.09374207 C158.46654454 4.0915527 146.70507561 4.08489572 134.94360352 4.07543945 C123.5174971 4.06626237 112.09139256 4.05918298 100.6652832 4.05493164 C99.60906902 4.05453756 99.60906902 4.05453756 98.53151719 4.05413551 C94.99908828 4.05283048 91.46665937 4.05156677 87.93423045 4.05032361 C58.62281583 4.03995457 29.31140799 4.02226511 0 4 C0 2.68 0 1.36 0 0 Z " fill="#3E7CEB" transform="translate(58,51)"/>
<path d="M0 0 C0.99 0 1.98 0 3 0 C3 39.93 3 79.86 3 121 C23.50838991 120.84177443 23.50838991 120.84177443 44.01635742 120.63964844 C46.58772113 120.6279658 49.15909222 120.61777298 51.73046875 120.609375 C52.72727409 120.59369476 52.72727409 120.59369476 53.74421692 120.57769775 C55.71234358 120.54829955 57.68082385 120.54664268 59.64916992 120.54589844 C60.7572551 120.53701599 61.86534027 120.52813354 63.00700378 120.51898193 C66.72455755 121.11644695 68.38620424 122.32724363 71 125 C71.6437446 128.9339948 71.56223945 131.06293426 69.5 134.5 C65.28893148 138.71106852 60.96140933 142.69239378 56 146 C56.875 141.25 56.875 141.25 58 139 C58.99 139 59.98 139 61 139 C60.7525 138.278125 60.505 137.55625 60.25 136.8125 C60 134 60 134 61.9375 131.1875 C62.618125 130.465625 63.29875 129.74375 64 129 C62.68 128.67 61.36 128.34 60 128 C60.33 127.01 60.66 126.02 61 125 C59.32992177 123.32992177 57.30293166 123.85549603 55.00878906 123.83886719 C53.94388245 123.82925964 52.87897583 123.8196521 51.78179932 123.80975342 C50.04129303 123.8033786 50.04129303 123.8033786 48.265625 123.796875 C46.48765533 123.78832489 46.48765533 123.78832489 44.67376709 123.77960205 C42.15849709 123.77013325 39.64321457 123.76361065 37.12792969 123.75976562 C33.28037777 123.7500765 29.43336351 123.71907672 25.5859375 123.6875 C23.14583652 123.6809687 20.7057317 123.67571873 18.265625 123.671875 C17.1133844 123.6595282 15.9611438 123.6471814 14.77398682 123.63446045 C13.15771393 123.6389621 13.15771393 123.6389621 11.50878906 123.64355469 C10.56360413 123.63990906 9.61841919 123.63626343 8.64459229 123.63250732 C5.49410236 124.07029956 3.64266597 125.27634172 1 127 C-1.8125 127.6875 -1.8125 127.6875 -4 128 C-4 127.34 -4 126.68 -4 126 C-8.78735926 126.11826743 -13.57451171 126.24251713 -18.36157227 126.37231445 C-19.99011004 126.41562749 -21.61869216 126.45730518 -23.24731445 126.49731445 C-25.58818935 126.55510503 -27.92884176 126.61877398 -30.26953125 126.68359375 C-30.99775589 126.70030624 -31.72598053 126.71701874 -32.47627258 126.73423767 C-35.56166939 126.82467238 -38.05171978 127.01723993 -41 128 C-41.33 127.01 -41.66 126.02 -42 125 C-45.96002233 127.59671581 -45.96002233 127.59671581 -47.70359802 131.85133362 C-47.73752151 132.98650925 -47.77144501 134.12168488 -47.80639648 135.29125977 C-47.83053084 135.93760407 -47.8546652 136.58394838 -47.87953091 137.24987888 C-47.95100145 139.50032945 -47.97895458 141.74852749 -48 144 C-48.01759306 145.25673586 -48.01759306 145.25673586 -48.03554153 146.53886032 C-48.12471416 153.47278296 -48.11496647 160.40551016 -48.09765625 167.33984375 C-48.0957871 169.56042956 -48.09436555 171.7810158 -48.09336853 174.00160217 C-48.08958245 179.79646987 -48.07978635 185.5913118 -48.06866455 191.38616943 C-48.05836558 197.3192917 -48.05385287 203.25241821 -48.04882812 209.18554688 C-48.0381599 220.79037579 -48.02113146 232.39518574 -48 244 C-48.99 243.67 -49.98 243.34 -51 243 C-50.505 183.6 -50.505 183.6 -50 123 C-71.12 123 -92.24 123 -114 123 C-114.33 122.34 -114.66 121.68 -115 121 C-57.085 121.495 -57.085 121.495 2 122 C1.84352073 99.67987671 1.84352073 99.67987671 1.67741489 77.35983086 C1.61637397 69.38004145 1.55681318 61.40024977 1.50268555 53.42041016 C1.45983833 47.10428662 1.41355899 40.78819926 1.36312145 34.47213161 C1.33652483 31.12642291 1.31167188 27.78072137 1.29092598 24.43497086 C1.26693072 20.70415469 1.23686951 16.97343462 1.20532227 13.24267578 C1.1995668 12.12777771 1.19381134 11.01287964 1.18788147 9.86419678 C1.17809265 8.85174896 1.16830383 7.83930115 1.15821838 6.7961731 C1.15176583 5.91309542 1.14531328 5.03001774 1.1386652 4.12018013 C1.13404439 1.94484956 1.13404439 1.94484956 0 0 Z " fill="#A95B28" transform="translate(229,96)"/>
<path d="M0 0 C2.64 0 5.28 0 8 0 C8 0.33 8 0.66 8 1 C6.35 1 4.7 1 3 1 C3 91.09 3 181.18 3 274 C2.34 274 1.68 274 1 274 C0.15057843 266.9009563 -0.14110927 259.92085071 -0.12025452 252.7749939 C-0.12110894 251.68839182 -0.12196337 250.60178975 -0.12284368 249.48226035 C-0.12448225 245.86494681 -0.11900381 242.24768031 -0.11352539 238.63037109 C-0.11324314 236.02794394 -0.11340199 233.42551671 -0.1139679 230.8230896 C-0.11449056 225.23238011 -0.11137069 219.64168234 -0.10573006 214.0509758 C-0.09758012 205.96789539 -0.09499626 197.88482062 -0.09374207 189.80173655 C-0.09155703 176.68536673 -0.08491182 163.56900315 -0.07543945 150.45263672 C-0.06625115 137.71630891 -0.05917726 124.9799828 -0.05493164 112.24365234 C-0.05466892 111.45771275 -0.05440619 110.67177315 -0.05413551 109.8620172 C-0.05283041 105.91892874 -0.05156672 101.97584027 -0.05032361 98.0327518 C-0.03996806 65.35516332 -0.02236468 32.6775825 0 0 Z " fill="#355091" transform="translate(54,56)"/>
<path d="M0 0 C0.66 0.33 1.32 0.66 2 1 C2.46806645 3.33744294 2.82669794 5.69739079 3.125 8.0625 C3.29257812 9.35285156 3.46015625 10.64320313 3.6328125 11.97265625 C3.75398438 12.97167969 3.87515625 13.97070312 4 15 C4.66 15 5.32 15 6 15 C6 15.66 6 16.32 6 17 C6.66 17 7.32 17 8 17 C7.67 16.236875 7.34 15.47375 7 14.6875 C5.66054332 9.74825349 5.83712342 5.08536891 6 0 C7.79675517 3.25612837 8.72516832 6.47879424 9.6875 10.0625 C14.30463644 25.23794108 25.44384218 37.94940819 39 46 C49.63310527 51.38369624 60.26813 53.46800323 72 55 C72 55.33 72 55.66 72 56 C62.10045208 56.35077138 52.31579048 55.62280741 43 52 C44.32 53.98 45.64 55.96 47 58 C28.51188283 52.90906918 14.74818658 39.1135975 5.18359375 22.92578125 C1.83475848 16.62351536 -2.02856808 9.04776267 -0.53515625 1.71875 C-0.35855469 1.1515625 -0.18195312 0.584375 0 0 Z " fill="#4A78DC" transform="translate(51,324)"/>
<path d="M0 0 C0.33 0 0.66 0 1 0 C1 86.46 1 172.92 1 262 C-40.1675 262.061875 -81.335 262.12375 -123.75 262.1875 C-136.7447168 262.21481201 -149.73943359 262.24212402 -163.12792969 262.27026367 C-179.00634766 262.28381348 -179.00634766 262.28381348 -186.44171143 262.28633118 C-191.63039278 262.28912406 -196.81897983 262.3001085 -202.00762939 262.31672668 C-208.6321336 262.33791208 -215.25653063 262.34346548 -221.88107538 262.33921683 C-224.30848136 262.34010489 -226.73589214 262.34602829 -229.16327047 262.35764539 C-252.49890836 262.46411208 -252.49890836 262.46411208 -262 259 C-262 258.67 -262 258.34 -262 258 C-257.1666528 257.91666643 -252.76307437 258.04738513 -248 259 C-248 259.66 -248 260.32 -248 261 C-166.16 261 -84.32 261 0 261 C0 174.87 0 88.74 0 0 Z " fill="#4B7AD2" transform="translate(360,124)"/>
<path d="M0 0 C0.99 0 1.98 0 3 0 C3 39.93 3 79.86 3 121 C23.50838991 120.84177443 23.50838991 120.84177443 44.01635742 120.63964844 C46.58772113 120.6279658 49.15909222 120.61777298 51.73046875 120.609375 C52.72727409 120.59369476 52.72727409 120.59369476 53.74421692 120.57769775 C55.71234358 120.54829955 57.68082385 120.54664268 59.64916992 120.54589844 C60.7572551 120.53701599 61.86534027 120.52813354 63.00700378 120.51898193 C66.72455755 121.11644695 68.38620424 122.32724363 71 125 C71.6437446 128.9339948 71.56223945 131.06293426 69.5 134.5 C65.28893148 138.71106852 60.96140933 142.69239378 56 146 C56.875 141.25 56.875 141.25 58 139 C58.99 139 59.98 139 61 139 C60.7525 138.278125 60.505 137.55625 60.25 136.8125 C60 134 60 134 61.9375 131.1875 C62.618125 130.465625 63.29875 129.74375 64 129 C62.68 128.67 61.36 128.34 60 128 C60.495 126.515 60.495 126.515 61 125 C59.98774421 123.76432522 59.98774421 123.76432522 57.90130615 123.89320374 C56.97706848 123.90145676 56.05283081 123.90970978 55.10058594 123.91821289 C53.53325714 123.92800926 53.53325714 123.92800926 51.93426514 123.93800354 C50.22656952 123.95515663 50.22656952 123.95515663 48.484375 123.97265625 C46.09505355 123.98530686 43.70573056 123.9976675 41.31640625 124.00976562 C37.53299187 124.03456926 33.74965684 124.06250303 29.96630859 124.09594727 C26.32649222 124.12615617 22.68677681 124.14393165 19.046875 124.16015625 C17.91650818 124.17361588 16.78614136 124.1870755 15.621521 124.20094299 C14.56402649 124.20432175 13.50653198 124.2077005 12.41699219 124.21118164 C11.48957214 124.21863907 10.5621521 124.2260965 9.60662842 124.23377991 C6.74596759 123.97721667 4.63242726 123.10991402 2 122 C1.99576806 121.38339571 1.99153612 120.76679142 1.98717594 120.13150215 C1.8839662 105.14277446 1.77534308 90.15409669 1.66066074 75.16545296 C1.6053329 67.91712187 1.55185163 60.66878587 1.50268555 53.42041016 C1.45983833 47.10428662 1.41355899 40.78819926 1.36312145 34.47213161 C1.33652483 31.12642291 1.31167188 27.78072137 1.29092598 24.43497086 C1.26693072 20.70415469 1.23686951 16.97343462 1.20532227 13.24267578 C1.1995668 12.12777771 1.19381134 11.01287964 1.18788147 9.86419678 C1.17809265 8.85174896 1.16830383 7.83930115 1.15821838 6.7961731 C1.15176583 5.91309542 1.14531328 5.03001774 1.1386652 4.12018013 C1.13404439 1.94484956 1.13404439 1.94484956 0 0 Z " fill="#955121" transform="translate(229,96)"/>
<path d="M0 0 C3.8740605 2.582707 5.78152266 5.96640484 8 10 C8 10.99 8 11.98 8 13 C8.66 13 9.32 13 10 13 C10.99 16.3 11.98 19.6 13 23 C12.34 23.33 11.68 23.66 11 24 C11 23.34 11 22.68 11 22 C10.34 22 9.68 22 9 22 C8.67 21.01 8.34 20.02 8 19 C7.979375 20.2375 7.95875 21.475 7.9375 22.75 C7.92589844 23.44609375 7.91429687 24.1421875 7.90234375 24.859375 C7.92139405 26.97345931 7.92139405 26.97345931 8.49841303 28.84534049 C9.04108897 31.17650525 9.12418271 33.22283809 9.12304783 35.61517715 C9.12503888 36.54275778 9.12702993 37.47033841 9.12908131 38.42602754 C9.12471205 39.94936601 9.12471205 39.94936601 9.12025452 41.503479 C9.12110894 42.58495453 9.12196337 43.66643005 9.12284368 44.78067756 C9.12449519 48.41662723 9.11898245 52.05253111 9.11352539 55.68847656 C9.11324342 58.29001871 9.11340144 60.89156093 9.1139679 63.49310303 C9.1144924 69.10028816 9.11135328 74.70746166 9.10573006 80.31464386 C9.0976051 88.42170026 9.09499881 96.52875103 9.09374207 104.63581106 C9.09155312 117.78878608 9.08489727 130.94175491 9.07543945 144.09472656 C9.06626129 156.87207 9.05918243 169.64941175 9.05493164 182.42675781 C9.05466892 183.21427375 9.05440619 184.00178969 9.05413551 184.81316975 C9.05283048 188.76388201 9.05156677 192.71459429 9.05032361 196.66530657 C9.03995588 229.44354223 9.02234181 262.22177028 9 295 C8.67 295 8.34 295 8 295 C7.99902319 294.45017259 7.99804638 293.90034519 7.99703997 293.33385634 C7.93871475 260.71619361 7.86487783 228.09860791 7.77101372 195.48102914 C7.75974612 191.56092078 7.74860758 187.64081207 7.73754883 183.72070312 C7.73534514 182.94030978 7.73314146 182.15991643 7.730871 181.35587481 C7.69553911 168.73486576 7.67065181 156.11385676 7.64965298 143.49281666 C7.62785815 130.53373705 7.59477288 117.57472138 7.55129844 104.61569619 C7.52484503 96.62511549 7.50710325 88.6346144 7.50065396 80.6439921 C7.49475557 74.50741625 7.47311669 68.37098578 7.44572449 62.23447037 C7.43695299 59.72393423 7.43321983 57.21337447 7.43499184 54.70282364 C7.43665181 51.2648711 7.41988291 47.82746477 7.39872742 44.3895874 C7.40357499 43.40511305 7.40842257 42.42063869 7.41341704 41.40633178 C7.35069817 35.19487746 6.37474302 29.71022072 4.66054279 23.73728013 C3.69415166 19.73256871 3.79497826 16.10043474 4 12 C3.34 12 2.68 12 2 12 C2 10.68 2 9.36 2 8 C1.34 8 0.68 8 0 8 C-0.38063221 5.6739143 -0.71269945 3.33944736 -1 1 C-0.67 0.67 -0.34 0.34 0 0 Z " fill="#4778D8" transform="translate(348,85)"/>
<path d="M0 0 C10.71548095 5.52009625 18.49234261 17.10649464 23 28 C22.59375 30.2265625 22.59375 30.2265625 22 32 C20.515 28.535 20.515 28.535 19 25 C18.34 25 17.68 25 17 25 C16.34 23.35 15.68 21.7 15 20 C13.78918149 23.10540926 13.78918149 23.10540926 14 27 C14.66 27 15.32 27 16 27 C16 28.32 16 29.64 16 31 C16.66 31 17.32 31 18 31 C18 32.98 18 34.96 18 37 C15.44227692 34.44227692 14.40791423 31.77972347 12.875 28.5 C7.8072283 18.0786097 0.90688766 10.38117079 -8 3 C-7.01 3 -6.02 3 -5 3 C-3.32900023 2.68911632 -1.66128463 2.35919668 0 2 C0 1.34 0 0.68 0 0 Z " fill="#3D6AC0" transform="translate(334,66)"/>
<path d="M0 0 C2 3 2 3 1.85546875 5.02734375 C0.76674208 7.53787786 -0.333926 8.20415158 -2.6875 9.5625 C-3.40808594 9.97886719 -4.12867188 10.39523438 -4.87109375 10.82421875 C-5.57363281 11.21222656 -6.27617187 11.60023438 -7 12 C-8.0725 12.61875 -9.145 13.2375 -10.25 13.875 C-13.23534355 15.09627691 -14.08592238 15.16563105 -17 14 C-18.33069321 13.65627851 -19.66378306 13.32157918 -21 13 C-18.92569173 10.84475774 -16.84146179 8.70098609 -14.75 6.5625 C-13.87021484 5.64500977 -13.87021484 5.64500977 -12.97265625 4.70898438 C-12.39902344 4.12568359 -11.82539063 3.54238281 -11.234375 2.94140625 C-10.71069336 2.40201416 -10.18701172 1.86262207 -9.64746094 1.30688477 C-6.57101066 -1.13357734 -3.61792705 -1.44717082 0 0 Z " fill="#F49D2A" transform="translate(172,157)"/>
<path d="M0 0 C0.66 0.33 1.32 0.66 2 1 C1.67 5.29 1.34 9.58 1 14 C-0.953125 13.44661458 -2.90625 12.89322917 -4.859375 12.33984375 C-7.26402725 11.95808326 -8.73084328 12.13928538 -11 13 C-12.28436734 14.9837767 -12.28436734 14.9837767 -13 17 C-14.32 16.67 -15.64 16.34 -17 16 C-14.91975578 13.89270058 -12.83597761 11.78911127 -10.75 9.6875 C-9.87021484 8.79514648 -9.87021484 8.79514648 -8.97265625 7.88476562 C-6.12147184 5.01756332 -3.34887496 2.29613457 0 0 Z " fill="#F49C2A" transform="translate(228,98)"/>
<path d="M0 0 C0.66 0.33 1.32 0.66 2 1 C2.46806645 3.33744294 2.82669794 5.69739079 3.125 8.0625 C3.29257812 9.35285156 3.46015625 10.64320313 3.6328125 11.97265625 C3.75398438 12.97167969 3.87515625 13.97070312 4 15 C4.66 15 5.32 15 6 15 C6 15.66 6 16.32 6 17 C6.66 17 7.32 17 8 17 C7.67 16.236875 7.34 15.47375 7 14.6875 C5.66054332 9.74825349 5.83712342 5.08536891 6 0 C9.03586536 5.85488319 10.51049799 11.3635261 10 18 C9.34 18.99 8.68 19.98 8 21 C8.31506627 24.14221967 8.31506627 24.14221967 9 27 C2.74767643 21.33098359 -0.39001508 12.27836681 -1 4 C-0.5390625 1.7109375 -0.5390625 1.7109375 0 0 Z " fill="#3C63B4" transform="translate(51,324)"/>
<path d="M0 0 C3.67026537 0.52248066 6.96886649 1.66262083 10.4375 2.9375 C17.18255909 5.24745174 23.93556363 6.20577343 31 7 C31 7.33 31 7.66 31 8 C21.10045208 8.35077138 11.31579048 7.62280741 2 4 C3.98 6.97 3.98 6.97 6 10 C3.69 9.34 1.38 8.68 -1 8 C-1 7.01 -1 6.02 -1 5 C-2.32 4.34 -3.64 3.68 -5 3 C-4.360625 2.690625 -3.72125 2.38125 -3.0625 2.0625 C-1.06389179 1.1654837 -1.06389179 1.1654837 0 0 Z " fill="#34589F" transform="translate(92,372)"/>
<path d="M0 0 C0 0.66 0 1.32 0 2 C0.66 2 1.32 2 2 2 C2 2.66 2 3.32 2 4 C4.64 4.33 7.28 4.66 10 5 C11 9.875 11 9.875 11 11 C6.55398816 11.36226763 3.71180947 10.22114658 -0.25 8.25 C-1.30703125 7.73953125 -2.3640625 7.2290625 -3.453125 6.703125 C-6 5 -6 5 -6.859375 2.796875 C-6.90578125 2.20390625 -6.9521875 1.6109375 -7 1 C-2.25 0 -2.25 0 0 0 Z " fill="#4278DE" transform="translate(323,59)"/>
<path d="M0 0 C0.99 0.66 1.98 1.32 3 2 C3 2.66 3 3.32 3 4 C1.35 4 -0.3 4 -2 4 C-1.896875 4.886875 -1.79375 5.77375 -1.6875 6.6875 C-2.09498572 11.00684858 -3.7722703 12.25642975 -7 15 C-8.98 14.34 -10.96 13.68 -13 13 C-13 11.68 -13 10.36 -13 9 C-12.34 9 -11.68 9 -11 9 C-11 8.34 -11 7.68 -11 7 C-9.02 7 -7.04 7 -5 7 C-4.9175 6.21625 -4.835 5.4325 -4.75 4.625 C-4 2 -4 2 -1.9375 0.6875 C-1.298125 0.460625 -0.65875 0.23375 0 0 Z " fill="#F1952A" transform="translate(253,263)"/>
<path d="M0 0 C5.06794582 4.32265967 8.54603986 9.80974716 11 16 C10.6640625 18.33984375 10.6640625 18.33984375 10 20 C9.01 17.69 8.02 15.38 7 13 C6.34 13 5.68 13 5 13 C4.34 11.35 3.68 9.7 3 8 C1.78918149 11.10540926 1.78918149 11.10540926 2 15 C2.66 15 3.32 15 4 15 C4 16.32 4 17.64 4 19 C4.66 19 5.32 19 6 19 C6 20.98 6 22.96 6 25 C3.4446244 22.4446244 2.20995932 19.56023358 0.75 16.3125 C0.45609375 15.71244141 0.1621875 15.11238281 -0.140625 14.49414062 C-2.30315315 9.65444421 -1.80277309 6.87349658 0 2 C0 1.34 0 0.68 0 0 Z " fill="#355BA4" transform="translate(346,78)"/>
<path d="M0 0 C0.33 1.32 0.66 2.64 1 4 C1.66 4 2.32 4 3 4 C3.41373367 4.48608231 3.82746735 4.97216461 4.2537384 5.47297668 C6.76965302 7.67302523 8.63219268 7.39827003 11.94018555 7.43237305 C13.77174446 7.46206429 13.77174446 7.46206429 15.64030457 7.49235535 C16.95912125 7.49874527 18.27793793 7.50513519 19.63671875 7.51171875 C21.00008263 7.52856431 22.36343097 7.5467144 23.72676086 7.56611633 C27.31221662 7.61363653 30.89760938 7.6434324 34.48327637 7.66955566 C38.14327439 7.6993513 41.80305525 7.74588495 45.46289062 7.79101562 C52.64181938 7.87707151 59.82076388 7.94440619 67 8 C67 8.33 67 8.66 67 9 C58.85491762 9.04635413 50.70989042 9.08188479 42.56470871 9.10362434 C38.78251229 9.11405858 35.00040617 9.12821116 31.21826172 9.15087891 C27.56782392 9.17262021 23.91747295 9.18457134 20.2669754 9.18975449 C18.87472416 9.19344794 17.48247762 9.20066034 16.09026337 9.21146011 C14.13932433 9.22599126 12.18829782 9.22681706 10.23730469 9.22705078 C8.57184601 9.23371262 8.57184601 9.23371262 6.8727417 9.24050903 C4.04286013 9.0035883 2.39834586 8.46836296 0 7 C0 4.69 0 2.38 0 0 Z " fill="#E69F4C" transform="translate(112,209)"/>
<path d="M0 0 C4.82630375 0.50840885 7.8601092 1.86958544 11.875 4.5625 C12.84179688 5.20316406 13.80859375 5.84382813 14.8046875 6.50390625 C15.52914063 6.99761719 16.25359375 7.49132813 17 8 C13.98968256 8.93423645 13.13349732 9.04449911 10 8 C10 7.34 10 6.68 10 6 C9.34 6 8.68 6 8 6 C8 5.34 8 4.68 8 4 C5.69 4.33 3.38 4.66 1 5 C1.33 5.99 1.66 6.98 2 8 C-9.52164009 4.92482916 -9.52164009 4.92482916 -15 3 C-11.34606463 1.73176515 -8.50929974 2.24284679 -4.75 2.9375 C-3.67234375 3.13214844 -2.5946875 3.32679687 -1.484375 3.52734375 C-0.66453125 3.68332031 0.1553125 3.83929688 1 4 C0.67 2.68 0.34 1.36 0 0 Z " fill="#3559A3" transform="translate(315,55)"/>
<path d="M0 0 C3.875 0.875 3.875 0.875 5 2 C5.36468154 5.79268801 5.48766001 8.18723332 3.5 11.5 C-0.71106852 15.71106852 -5.03859067 19.69239378 -10 23 C-9.125 18.25 -9.125 18.25 -8 16 C-7.01 16 -6.02 16 -5 16 C-5 15.34 -5 14.68 -5 14 C-4.01 14 -3.02 14 -2 14 C-2 12.68 -2 11.36 -2 10 C-0.68 10 0.64 10 2 10 C1.54177532 6.53058454 1.10868317 3.32604951 0 0 Z " fill="#A45337" transform="translate(295,219)"/>
<path d="M0 0 C3 1 3 1 5 3 C3.10600285 4.75202288 1.20988262 6.50164978 -0.6875 8.25 C-1.21794922 8.74113281 -1.74839844 9.23226563 -2.29492188 9.73828125 C-5.43433028 12.62730739 -8.63177061 15.37540567 -12 18 C-12 16.35 -12 14.7 -12 13 C-11.34 13 -10.68 13 -10 13 C-9.896875 12.38125 -9.79375 11.7625 -9.6875 11.125 C-8.61802907 7.81936257 -5.81625965 6.87750643 -3 5 C-2.01 5 -1.02 5 0 5 C0 4.01 0 3.02 0 2 C-0.66 1.67 -1.32 1.34 -2 1 C-1.34 0.67 -0.68 0.34 0 0 Z " fill="#BA7A28" transform="translate(216,300)"/>
<path d="M0 0 C2 3 2 3 2 5.0625 C1 7 1 7 -2.0625 8.25 C-3.031875 8.4975 -4.00125 8.745 -5 9 C-5.33 8.34 -5.66 7.68 -6 7 C-5.67 6.34 -5.34 5.68 -5 5 C-4.34 5 -3.68 5 -3 5 C-3 4.34 -3 3.68 -3 3 C-3.61875 3.165 -4.2375 3.33 -4.875 3.5 C-7 4 -7 4 -9 4 C-10.34882408 4.63474075 -11.6846659 5.29848848 -13 6 C-8.62017804 0.28189911 -8.62017804 0.28189911 -5.9375 -0.9375 C-3.68466699 -1.01017203 -2.09982298 -0.83992919 0 0 Z " fill="#DD8D29" transform="translate(172,157)"/>
<path d="M0 0 C0.66 0.33 1.32 0.66 2 1 C1.41889329 4.42754467 0.31446376 6.04538661 -2.16015625 8.453125 C-2.78857422 9.071875 -3.41699219 9.690625 -4.06445312 10.328125 C-4.72380859 10.96234375 -5.38316406 11.5965625 -6.0625 12.25 C-6.72572266 12.8996875 -7.38894531 13.549375 -8.07226562 14.21875 C-9.70829317 15.8194676 -11.35090912 17.41276193 -13 19 C-13.66 18.67 -14.32 18.34 -15 18 C-14.525625 17.62875 -14.05125 17.2575 -13.5625 16.875 C-11.47794198 14.37353038 -11.35378509 12.18406582 -11 9 C-9.35 9 -7.7 9 -6 9 C-6 7.68 -6 6.36 -6 5 C-4.02 4.34 -2.04 3.68 0 3 C0 2.01 0 1.02 0 0 Z " fill="#C97D2F" transform="translate(262,258)"/>
<path d="M0 0 C0 0.66 0 1.32 0 2 C0.66 2.33 1.32 2.66 2 3 C0.35 3 -1.3 3 -3 3 C-3 3.66 -3 4.32 -3 5 C-2.34 5.33 -1.68 5.66 -1 6 C-1 6.66 -1 7.32 -1 8 C-5.61513112 6.68139111 -9.09897612 4.78644563 -13 2 C-12.360625 1.87625 -11.72125 1.7525 -11.0625 1.625 C-10.0415625 1.315625 -10.0415625 1.315625 -9 1 C-8.67 0.34 -8.34 -0.32 -8 -1 C-4.37673261 -2.2077558 -3.35853631 -1.54311128 0 0 Z " fill="#3B66B7" transform="translate(92,371)"/>
<path d="M0 0 C-1.58620127 3.87939509 -4.09920987 6.33361087 -7.0625 9.25 C-7.96097656 10.14203125 -8.85945312 11.0340625 -9.78515625 11.953125 C-12 14 -12 14 -13 14 C-13 12.02 -13 10.04 -13 8 C-12.01 8.33 -11.02 8.66 -10 9 C-9.67 7.35 -9.34 5.7 -9 4 C-8.01 3.67 -7.02 3.34 -6 3 C-5.67 2.34 -5.34 1.68 -5 1 C-2 0 -2 0 0 0 Z " fill="#C4802D" transform="translate(234,288)"/>
<path d="M0 0 C6.258654 -0.5326514 10.45108785 1.18150494 16 4 C15.01 4.495 15.01 4.495 14 5 C13.34 4.67 12.68 4.34 12 4 C11.67 4.99 11.34 5.98 11 7 C6.00724943 5.72278474 3.42388092 3.82669043 0 0 Z " fill="#4172D0" transform="translate(72,366)"/>
<path d="M0 0 C0.969375 0.845625 1.93875 1.69125 2.9375 2.5625 C7.17152248 6.19785946 11.57169222 9.60596819 16 13 C14 14 14 14 11.3125 13.125 C10.219375 12.75375 9.12625 12.3825 8 12 C5.67305036 11.62468554 3.34023315 11.28082798 1 11 C1.33 10.01 1.66 9.02 2 8 C2.33 8.33 2.66 8.66 3 9 C2.43945339 5.63672037 1.58158962 3.00887781 0 0 Z " fill="#3A63B3" transform="translate(71,355)"/>
<path d="M0 0 C0.33 0.99 0.66 1.98 1 3 C1.99 3.33 2.98 3.66 4 4 C5.33599181 7.00598158 6.14345053 9.09147996 5.625 12.375 C5.41875 12.91125 5.2125 13.4475 5 14 C5 13.34 5 12.68 5 12 C3.35 11.67 1.7 11.34 0 11 C-0.38909985 9.54536519 -0.76088029 8.08608793 -1.125 6.625 C-1.33382812 5.81289063 -1.54265625 5.00078125 -1.7578125 4.1640625 C-1.83773437 3.44992187 -1.91765625 2.73578125 -2 2 C-1.34 1.34 -0.68 0.68 0 0 Z " fill="#4177DA" transform="translate(60,342)"/>
<path d="M0 0 C3.66358628 2.44239085 5.21134883 5.24574594 7.1875 9.0625 C7.55230469 9.75472656 7.91710937 10.44695312 8.29296875 11.16015625 C8.52628906 11.76730469 8.75960938 12.37445313 9 13 C8.67 13.66 8.34 14.32 8 15 C7.34 14.67 6.68 14.34 6 14 C5.5 12 5.5 12 5 10 C4.34 9.67 3.68 9.34 3 9 C3.33 9.99 3.66 10.98 4 12 C3.34 12 2.68 12 2 12 C2 10.68 2 9.36 2 8 C1.34 8 0.68 8 0 8 C-0.38063221 5.6739143 -0.71269945 3.33944736 -1 1 C-0.67 0.67 -0.34 0.34 0 0 Z " fill="#4A78DF" transform="translate(348,85)"/>
<path d="M0 0 C3.96 0 7.92 0 12 0 C12 0.33 12 0.66 12 1 C10.3603125 1.4021875 10.3603125 1.4021875 8.6875 1.8125 C4.58762954 3.01815269 4.58762954 3.01815269 2 6 C1.62355152 8.62939205 1.39866913 11.05072472 1.3125 13.6875 C1.27833984 14.38939453 1.24417969 15.09128906 1.20898438 15.81445312 C1.12670053 17.54241387 1.0616676 19.27118072 1 21 C0.67 21 0.34 21 0 21 C0 14.07 0 7.14 0 0 Z " fill="#DD6E40" transform="translate(180,219)"/>
<path d="M0 0 C0.99 0 1.98 0 3 0 C1.52651292 3.42527887 -0.40907846 5.64955058 -3.0625 8.25 C-3.77535156 8.95640625 -4.48820312 9.6628125 -5.22265625 10.390625 C-7 12 -7 12 -8 12 C-8 10.35 -8 8.7 -8 7 C-7.01 6.67 -6.02 6.34 -5 6 C-4.26676204 3.98491642 -4.26676204 3.98491642 -4 2 C-2.68 2 -1.36 2 0 2 C0 1.34 0 0.68 0 0 Z " fill="#B66F32" transform="translate(273,249)"/>
<path d="M0 0 C3.63 0.33 7.26 0.66 11 1 C11.33 2.32 11.66 3.64 12 5 C10.56260487 5.02712066 9.12506137 5.04645067 7.6875 5.0625 C6.48673828 5.07990234 6.48673828 5.07990234 5.26171875 5.09765625 C3 5 3 5 0 4 C0 2.68 0 1.36 0 0 Z " fill="#427BE5" transform="translate(304,54)"/>
<path d="M0 0 C0.66 0.33 1.32 0.66 2 1 C1.34 2.65 0.68 4.3 0 6 C-0.66 6 -1.32 6 -2 6 C-2.33 7.98 -2.66 9.96 -3 12 C-3.66 12 -4.32 12 -5 12 C-5 11.34 -5 10.68 -5 10 C-5.99 10 -6.98 10 -8 10 C-6.34908222 5.70761377 -3.26245434 3.1206085 0 0 Z " fill="#F19E34" transform="translate(151,171)"/>
<path d="M0 0 C3.26460973 1.80412643 4.88929795 2.83394693 7 6 C4.03 5.505 4.03 5.505 1 5 C0.34 6.32 -0.32 7.64 -1 9 C-3.31 7.02 -5.62 5.04 -8 3 C-7.01 3 -6.02 3 -5 3 C-3.32900023 2.68911632 -1.66128463 2.35919668 0 2 C0 1.34 0 0.68 0 0 Z " fill="#3861AF" transform="translate(334,66)"/>
<path d="M0 0 C-1.66666667 1.66666667 -3.33333333 3.33333333 -5 5 C-5.886875 5.928125 -6.77375 6.85625 -7.6875 7.8125 C-10 10 -10 10 -12 10 C-11.67 8.35 -11.34 6.7 -11 5 C-9.35 4.67 -7.7 4.34 -6 4 C-6 2.68 -6 1.36 -6 0 C-3.50907189 -1.24546405 -2.58919267 -0.7767578 0 0 Z " fill="#B77C2C" transform="translate(192,329)"/>
<path d="M0 0 C1 3 1 3 0.375 5 C-1.39736265 7.57798204 -3.20545486 8.63680725 -6 10 C-6.99 10 -7.98 10 -9 10 C-6.43571997 5.82117329 -3.98069267 2.87494471 0 0 Z " fill="#C3802F" transform="translate(181,142)"/>
<path d="M0 0 C2.91517292 1.07401108 4.77810176 1.77810176 7 4 C7.125 6.625 7.125 6.625 7 9 C5.68 8.34 4.36 7.68 3 7 C3 6.34 3 5.68 3 5 C1.68 4.67 0.36 4.34 -1 4 C-0.67 2.68 -0.34 1.36 0 0 Z " fill="#417BE7" transform="translate(68,356)"/>
<path d="M0 0 C1.32 0.33 2.64 0.66 4 1 C4 1.66 4 2.32 4 3 C4.66 3 5.32 3 6 3 C6 4.32 6 5.64 6 7 C7.32 7.33 8.64 7.66 10 8 C10.33 9.65 10.66 11.3 11 13 C5.98756041 9.15619099 2.8313413 5.6626826 0 0 Z " fill="#3E65B3" transform="translate(61,353)"/>
<path d="M0 0 C0.66 1.32 1.32 2.64 2 4 C0.02 5.98 -1.96 7.96 -4 10 C-4.99 9.67 -5.98 9.34 -7 9 C-5.25 5.125 -5.25 5.125 -3 4 C-2.67 3.01 -2.34 2.02 -2 1 C-1.34 0.67 -0.68 0.34 0 0 Z " fill="#B1632F" transform="translate(283,239)"/>
<path d="M0 0 C0.66 0.33 1.32 0.66 2 1 C1.67 1.99 1.34 2.98 1 4 C0.01 4.33 -0.98 4.66 -2 5 C-2.69937532 6.31647119 -3.36729133 7.65022151 -4 9 C-4.99 9.495 -4.99 9.495 -6 10 C-6.65772428 13.02934491 -6.65772428 13.02934491 -7 16 C-9 13 -9 13 -8.5625 10.25 C-6.49105708 5.94139872 -3.51453454 3.1762371 0 0 Z " fill="#956327" transform="translate(119,199)"/>
<path d="M0 0 C0.99 1.32 1.98 2.64 3 4 C2.01 4.33 1.02 4.66 0 5 C0 5.66 0 6.32 0 7 C-2.31 7.33 -4.62 7.66 -7 8 C-6.02133662 6.85373678 -5.04205413 5.70800212 -4.0625 4.5625 C-3.51722656 3.92441406 -2.97195312 3.28632813 -2.41015625 2.62890625 C-1.63204305 1.73008851 -0.84063472 0.84063472 0 0 Z " fill="#CC862C" transform="translate(158,163)"/>
<path d="M0 0 C0.66 0.33 1.32 0.66 2 1 C2 2.65 2 4.3 2 6 C0.35 5.67 -1.3 5.34 -3 5 C-3 5.66 -3 6.32 -3 7 C-4.98 7.66 -6.96 8.32 -9 9 C-6.21000549 5.51250686 -3.74764169 2.49842779 0 0 Z " fill="#B47829" transform="translate(228,98)"/>
<path d="M0 0 C0.66 0.33 1.32 0.66 2 1 C0.90033225 2.29549899 -0.20491801 3.58626071 -1.3125 4.875 C-1.92738281 5.59429687 -2.54226563 6.31359375 -3.17578125 7.0546875 C-5 9 -5 9 -8 11 C-7.125 6.25 -7.125 6.25 -6 4 C-5.01 4 -4.02 4 -3 4 C-3 3.34 -3 2.68 -3 2 C-2.01 2 -1.02 2 0 2 C0 1.34 0 0.68 0 0 Z " fill="#B45E38" transform="translate(293,231)"/>
<path d="M0 0 C1.65 0 3.3 0 5 0 C4.42424336 3.35250701 3.40693737 4.93818629 0.9375 7.25 C0.11572266 8.03117187 0.11572266 8.03117187 -0.72265625 8.828125 C-1.14417969 9.21484375 -1.56570312 9.6015625 -2 10 C-2.66 9.67 -3.32 9.34 -4 9 C-3.525625 8.62875 -3.05125 8.2575 -2.5625 7.875 C-0.47794198 5.37353038 -0.35378509 3.18406582 0 0 Z " fill="#AF6A2A" transform="translate(251,267)"/>
<path d="M0 0 C4.8333472 -0.08333357 9.23692563 0.04738513 14 1 C14 1.66 14 2.32 14 3 C14.66 3.33 15.32 3.66 16 4 C10.43109483 3.52013969 5.32932432 2.70084819 0 1 C0 0.67 0 0.34 0 0 Z " fill="#3E66B0" transform="translate(98,382)"/>
<path d="M0 0 C1.98 0.66 3.96 1.32 6 2 C6 3.32 6 4.64 6 6 C3.69 5.67 1.38 5.34 -1 5 C-1.33 4.01 -1.66 3.02 -2 2 C-1.34 1.34 -0.68 0.68 0 0 Z " fill="#417BE0" transform="translate(335,70)"/>
<path d="M0 0 C-1.49097658 3.7952131 -3.75700849 5.61042731 -7 8 C-7.33 6.02 -7.66 4.04 -8 2 C-2.25 0 -2.25 0 0 0 Z " fill="#B6792C" transform="translate(199,321)"/>
<path d="M0 0 C1.69057475 3.38114949 2.45815467 5.6299825 3.125 9.25 C3.29257812 10.14203125 3.46015625 11.0340625 3.6328125 11.953125 C3.75398438 12.62859375 3.87515625 13.3040625 4 14 C3.67 13.34 3.34 12.68 3 12 C2.01 11.67 1.02 11.34 0 11 C0 7.37 0 3.74 0 0 Z " fill="#2C4B83" transform="translate(57,324)"/>
<path d="M0 0 C0.66 0.33 1.32 0.66 2 1 C-0.10515339 4.72450216 -1.24267224 6.6795921 -5.25 8.375 C-6.61125 8.684375 -6.61125 8.684375 -8 9 C-7.04270084 7.87411986 -6.08412105 6.7493285 -5.125 5.625 C-4.59132812 4.99851563 -4.05765625 4.37203125 -3.5078125 3.7265625 C-2.38567993 2.44163349 -1.20628025 1.20628025 0 0 Z " fill="#9F6727" transform="translate(194,129)"/>
<path d="M0 0 C0 0.66 0 1.32 0 2 C0.66 2 1.32 2 2 2 C2 2.66 2 3.32 2 4 C-0.64 4 -3.28 4 -6 4 C-6.33 3.01 -6.66 2.02 -7 1 C-2.25 0 -2.25 0 0 0 Z " fill="#437AE4" transform="translate(323,59)"/>
<path d="M0 0 C0.99 0 1.98 0 3 0 C3.33 2.64 3.66 5.28 4 8 C3.67 7.34 3.34 6.68 3 6 C0.98330173 4.86649466 0.98330173 4.86649466 -1 4 C-0.67 2.68 -0.34 1.36 0 0 Z " fill="#4479E9" transform="translate(62,348)"/>
<path d="M0 0 C2.64 0 5.28 0 8 0 C8.33 1.65 8.66 3.3 9 5 C5.54074837 3.7508258 2.85306797 2.32472205 0 0 Z " fill="#3A5EAA" transform="translate(317,63)"/>
<path d="M0 0 C4.455 2.97 4.455 2.97 9 6 C8.01 6.495 8.01 6.495 7 7 C4.64018187 6.06421005 2.30368736 5.06652192 0 4 C0 2.68 0 1.36 0 0 Z " fill="#33539A" transform="translate(78,362)"/>
<path d="M0 0 C-0.66 0 -1.32 0 -2 0 C-2 0.66 -2 1.32 -2 2 C-2.66 2 -3.32 2 -4 2 C-4 2.99 -4 3.98 -4 5 C-4.99 5.33 -5.98 5.66 -7 6 C-7 5.01 -7 4.02 -7 3 C-7.33 2.01 -7.66 1.02 -8 0 C-4.71303767 -0.79953138 -3.28976808 -1.09658936 0 0 Z " fill="#D36735" transform="translate(297,219)"/>
<path d="M0 0 C3.99455527 0.61454696 6.74466336 2.70646737 10 5 C6.98968256 5.93423645 6.13349732 6.04449911 3 5 C3 4.34 3 3.68 3 3 C2.34 3 1.68 3 1 3 C0.67 2.01 0.34 1.02 0 0 Z " fill="#375BA0" transform="translate(322,58)"/>
<path d="M0 0 C-1.28965176 1.37562854 -2.62689293 2.70766393 -4 4 C-4.66 4 -5.32 4 -6 4 C-6.33 2.68 -6.66 1.36 -7 0 C-4.3333581 -1.33332095 -2.83319697 -0.67102033 0 0 Z " fill="#F59B1F" transform="translate(238,282)"/>
<path d="M0 0 C0.33 1.32 0.66 2.64 1 4 C0.34 4 -0.32 4 -1 4 C-1.33 4.66 -1.66 5.32 -2 6 C-2.99 6 -3.98 6 -5 6 C-4.67 4.35 -4.34 2.7 -4 1 C-2.68 0.67 -1.36 0.34 0 0 Z " fill="#F28F29" transform="translate(261,257)"/>
<path d="M0 0 C0.33 0.66 0.66 1.32 1 2 C1.99 2 2.98 2 4 2 C3.34 3.98 2.68 5.96 2 8 C1.34 7.67 0.68 7.34 0 7 C-0.5625 5.0625 -0.5625 5.0625 -1 3 C-1.33 2.34 -1.66 1.68 -2 1 C-1.34 0.67 -0.68 0.34 0 0 Z " fill="#DA8B20" transform="translate(198,126)"/>
<path d="M0 0 C2.18975773 3.28463659 2.99806563 6.20696275 4 10 C3.01 10.495 3.01 10.495 2 11 C2 10.34 2 9.68 2 9 C1.34 9 0.68 9 0 9 C0 6.03 0 3.06 0 0 Z " fill="#375BAA" transform="translate(357,98)"/>
<path d="M0 0 C2.64465038 3.1254959 3.84414715 6.08788267 5 10 C3 10 3 10 1.375 8.9375 C-0.68369484 6.03661182 -0.19557733 3.45519943 0 0 Z " fill="#305195" transform="translate(61,338)"/>
<path d="M0 0 C0.66 0.33 1.32 0.66 2 1 C2.33 1.99 2.66 2.98 3 4 C1.625 5.5 1.625 5.5 0 7 C-0.66 7 -1.32 7 -2 7 C-1.125 2.25 -1.125 2.25 0 0 Z " fill="#F79C2A" transform="translate(210,293)"/>
<path d="M0 0 C1.2065625 0.0309375 1.2065625 0.0309375 2.4375 0.0625 C0.79580472 2.08304804 -0.87161778 4.08293058 -2.5625 6.0625 C-2.8925 6.0625 -3.2225 6.0625 -3.5625 6.0625 C-3.605221 4.39638095 -3.60313832 2.72867115 -3.5625 1.0625 C-2.5625 0.0625 -2.5625 0.0625 0 0 Z " fill="#A36E28" transform="translate(238.5625,282.9375)"/>
<path d="M0 0 C0.33 1.32 0.66 2.64 1 4 C1.66 4 2.32 4 3 4 C4.625 6 4.625 6 6 8 C4.33388095 8.042721 2.66617115 8.04063832 1 8 C0 7 0 7 -0.0625 3.4375 C-0.041875 2.303125 -0.02125 1.16875 0 0 Z " fill="#D8953A" transform="translate(112,209)"/>
<path d="M0 0 C0.66 0.99 1.32 1.98 2 3 C0.68 4.32 -0.64 5.64 -2 7 C-2.66 6.01 -3.32 5.02 -4 4 C-2.68 2.68 -1.36 1.36 0 0 Z " fill="#ECA038" transform="translate(197,128)"/>
<path d="M0 0 C0 3.57575896 -1.08840607 5.05295935 -3 8 C-4.32 7.67 -5.64 7.34 -7 7 C-4.69 4.69 -2.38 2.38 0 0 Z " fill="#AB732A" transform="translate(218,107)"/>
<path d="M0 0 C1.65 1.32 3.3 2.64 5 4 C4.67 4.66 4.34 5.32 4 6 C2.35 5.67 0.7 5.34 -1 5 C-0.67 3.35 -0.34 1.7 0 0 Z " fill="#345EA6" transform="translate(341,72)"/>
<path d="M0 0 C3.63 0.33 7.26 0.66 11 1 C11 1.33 11 1.66 11 2 C9.741875 2.185625 8.48375 2.37125 7.1875 2.5625 C6.12595703 2.71912109 6.12595703 2.71912109 5.04296875 2.87890625 C3 3 3 3 0 2 C0 1.34 0 0.68 0 0 Z " fill="#3F65A5" transform="translate(293,55)"/>
<path d="M0 0 C1.32 0 2.64 0 4 0 C4 1.65 4 3.3 4 5 C3.01 5.33 2.02 5.66 1 6 C0.67 4.02 0.34 2.04 0 0 Z " fill="#EC992D" transform="translate(217,297)"/>
<path d="M0 0 C-1.36983503 3.16115776 -1.9890638 3.9927092 -5 6 C-5 4.35 -5 2.7 -5 1 C-3 0 -3 0 0 0 Z " fill="#BB7A2D" transform="translate(246,277)"/>
<path d="M0 0 C1.70884005 1.62339805 3.37446717 3.29319053 5 5 C5 5.66 5 6.32 5 7 C3.68 7 2.36 7 1 7 C0.67 4.69 0.34 2.38 0 0 Z " fill="#2F558F" transform="translate(66,348)"/>
<path d="M0 0 C1.485 0.99 1.485 0.99 3 2 C2.67 3.65 2.34 5.3 2 7 C1.67 6.01 1.34 5.02 1 4 C0.34 4 -0.32 4 -1 4 C-0.67 2.68 -0.34 1.36 0 0 Z " fill="#417BEC" transform="translate(348,85)"/>
</svg>
